<svg xmlns="http://www.w3.org/2000/svg" viewBox="0 0 1280 320" width="1280" height="320" role="img" aria-label="Pumperly HA: a friendly pump waving its nozzle"><defs><clipPath id="cl"><rect width="1280" height="320" rx="18"/></clipPath></defs><g clip-path="url(#cl)"><rect width="1280" height="320" fill="#FFF4E0"/><circle cx="1040" cy="330" r="200" fill="#FFE2B0"/><path fill="#1D2B36"  d="M138,120l0,1q0,6-2,10q-2,5-7,7q-4,3-9,3l-15,0l0,19l-19,0l0-59l34,0q5,0 9,2q5,3 7,7q2,5 2,10zM105,127l8,0q3,0 5-1q1-2 1-5l0,0q0-3-1-5q-2-1-5-1l-8,0zM180,160l-1-7q-3,4-7,6q-4,2-9,2q-8,0-12-4q-4-5-4-13l0-29l17,0l0,27q0,3 2,5q1,1 4,1q3,0 5-2q2-2 2-5l0-26l17,0l0,45zM280,131l0,29l-17,0l0-27q0-3-1-5q-2-2-4-2q-3,0-5,2q-2,2-2,5l0,27l-17,0l0-27q0-3-1-5q-2-2-4-2q-3,0-5,2q-2,2-2,5l0,27l-17,0l0-45l14,0l1,6q2-3 7-5q4-2 9-2q10,0 13,7q3-3 7-5q4-2 9-2q8,0 12,4q3,4 3,13zM340,137q0,12-5,18q-5,6-14,6q-8,0-13-5l0,21l-17,0l0-62l14,0l1,6q5-7 15-7q9,0 14,6q5,6 5,17zM308,136l0,3q0,4 2,7q1,2 5,2q8,0 8-8l0-5q0-9-8-9q-4,0-5,3q-2,3-2,7zM397,137l0,3l-34,0q0,5 2,8q2,2 7,2q4,0 6-2q2-2 2-5l17,0q0,9-6,13q-6,5-19,5q-12,0-19-6q-7-6-7-18q0-11 7-17q6-6 18-6q13,0 20,5q6,6 6,18zM363,132l17,0q0-3-2-5q-2-3-6-3q-8,0-9,8zM438,115l0,14l-5,0q-6,0-8,3q-3,2-3,8l0,20l-17,0l0-45l14,0l1,6q2-3 5-6q4-2 8-2q2,0 3,1q2,0 2,1zM444,160l0-62l17,0l0,62zM480,178q-5,0-9-1l0-11l6,0q7,0 8-6l-18-45l18,0l9,30l1,0l8-30l17,0l-17,44q-3,9-8,14q-5,5-15,5zM594,160l0-22l-20,0l0,22l-19,0l0-59l19,0l0,21l20,0l0-21l19,0l0,59zM666,160l-3-8l-20,0l-3,8l-19,0l21-59l22,0l22,59zM647,138l12,0l-6-21l0,0z"/><path fill="#8A5A1C"  d="M86.1,214l0-22.6l14.6,0l0,3l-11.3,0l0,6.7l10.5,0l0,3l-10.5,0l0,9.9zM109.1,214.3q-1.7,0-3-.7q-1.3-.7-2.1-2.1q-.7-1.5-.7-3.5l0-10l3.2,0l0,9.6q0,1.9 .9,2.9q.9,1 2.6,1q1,0 1.9-.5q.9-.4 1.4-1.4q.5-.9 .5-2.4l0-9.2l3.2,0l0,16l-3.1,0l0-4l.7,0q-.8,2.2-2.2,3.2q-1.4,1.1-3.3,1.1zM127.4,214.4q-2.3,0-4-1.1q-1.7-1.1-2.7-3q-.9-1.9-.9-4.3q0-2.4 1-4.3q.9-1.9 2.6-3q1.7-1 3.9-1q1.7,0 3,.6q1.4,.6 2.4,1.7q1,1.1 1.5,2.6q.5,1.5 .5,3.4l0,.9l-13.4,0l0-2.5l11.8,0l-1.4,.8q0-1.5-.6-2.6q-.5-1.1-1.5-1.7q-1-.6-2.3-.6q-1.3,0-2.3,.6q-.9,.6-1.5,1.7q-.5,1.1-.5,2.6l0,1.4q0,1.5 .5,2.6q.5,1.2 1.5,1.8q1,.7 2.5,.7q1,0 1.8-.3q.8-.4 1.4-.9q.5-.6 .7-1.4l3.1,0q-.3,1.6-1.3,2.8q-1,1.1-2.5,1.8q-1.5,.7-3.3,.7zM140.7,191.4l0,22.6l-3.2,0l0-22.6zM156.6,214.3q-1.6,0-2.9-.6q-1.2-.5-2-1.6q-.7-1.1-.7-2.7q0-1.3 .5-2.2q.6-.9 1.4-1.4q.9-.5 2.1-.8q1.1-.2 2.3-.4q1.5-.2 2.4-.3q.9-.1 1.2-.4q.4-.2 .4-.8l0-.1q0-.8-.4-1.4q-.3-.6-1.1-.9q-.7-.4-1.7-.4q-1,0-1.8,.3q-.8,.4-1.2,1q-.5,.5-.6,1.3l-3.1,0q.1-1.5 .9-2.7q.9-1.2 2.4-1.8q1.4-.7 3.4-.7q1.5,0 2.7,.4q1.2,.4 2,1.1q.8,.7 1.3,1.6q.4,1 .4,2.2l0,11l-3.2,0l0-2.3l0,0q-.4,.7-.9,1.3q-.6,.5-1.5,.9q-1,.4-2.3,.4zM157.2,211.7q1.4,0 2.3-.5q.9-.5 1.4-1.4q.4-.8 .4-1.8l0-1.9q-.1,.2-.5,.3q-.4,.1-.9,.2q-.5,.1-1.2,.2q-.6,.1-1.2,.2q-.9,.1-1.6,.4q-.8,.3-1.2,.8q-.5,.5-.5,1.3q0,.7 .4,1.2q.3,.5 1,.7q.7,.3 1.6,.3zM171.3,204.8l0,9.2l-3.2,0l0-16l3.1,0l0,4l-.7,0q.8-2.2 2.2-3.2q1.4-1.1 3.3-1.1q1.7,0 3,.7q1.3,.7 2.1,2.1q.7,1.5 .7,3.5l0,10l-3.2,0l0-9.6q0-1.9-.9-2.9q-.9-.9-2.6-.9q-1.1,0-1.9,.4q-.9,.4-1.4,1.4q-.5,.9-.5,2.4zM191.6,214.3q-2.1,0-3.7-1q-1.5-1.1-2.4-3q-.9-1.8-.9-4.3q0-2.5 .9-4.3q.9-1.9 2.4-3q1.6-1 3.7-1q1,0 1.9,.3q1,.3 1.7,.9q.8,.5 1.3,1.4l0,0l0-8.9l3.2,0l0,22.6l-3.1,0l0-2.4l-.1,0q-.5,.9-1.3,1.5q-.7,.6-1.7,.9q-.9,.3-1.9,.3zM192.2,211.6q1.4,0 2.4-.7q1-.7 1.6-2q.5-1.2 .5-2.9q0-1.7-.5-2.9q-.6-1.3-1.6-2q-1-.7-2.4-.7q-1.3,0-2.2,.7q-1,.6-1.6,1.9q-.5,1.2-.5,3q0,1.8 .5,3q.6,1.3 1.6,1.9q.9,.7 2.2,.7zM217.5,214.4q-2.3,0-4-1.1q-1.7-1.1-2.6-2.9q-1-1.9-1-4.4q0-2.4 1-4.3q.9-1.9 2.6-3q1.7-1 4-1q1.4,0 2.7,.4q1.2,.4 2.1,1.2q.9,.8 1.5,1.8q.6,1.1 .7,2.4l-3.2,0q-.1-.7-.4-1.3q-.3-.5-.8-.9q-.5-.4-1.1-.7q-.6-.2-1.5-.2q-1.3,0-2.3,.7q-1,.7-1.5,2q-.6,1.2-.6,2.9q0,1.7 .6,3q.5,1.2 1.5,1.9q1,.7 2.3,.7q.9,0 1.5-.2q.6-.2 1.1-.6q.4-.4 .7-1q.3-.6 .5-1.3l3.2,0q-.1,1.3-.7,2.3q-.6,1.1-1.5,1.9q-.9,.8-2.1,1.2q-1.3,.5-2.7,.5zM230.4,204.8l0,9.2l-3.2,0l0-22.6l3.2,0l0,10.6l-.8,0q.8-2.2 2.2-3.2q1.4-1.1 3.4-1.1q1.6,0 2.9,.7q1.4,.7 2.1,2.1q.8,1.5 .8,3.5l0,10l-3.2,0l0-9.6q0-1.9-.9-2.9q-1-.9-2.6-.9q-1.1,0-2,.4q-.9,.4-1.4,1.4q-.5,.9-.5,2.4zM249.4,214.3q-1.5,0-2.8-.6q-1.2-.5-2-1.6q-.7-1.1-.7-2.7q0-1.3 .5-2.2q.5-.9 1.4-1.4q.9-.5 2.1-.8q1.1-.2 2.3-.4q1.5-.2 2.4-.3q.9-.1 1.2-.4q.4-.2 .4-.8l0-.1q0-.8-.4-1.4q-.3-.6-1.1-.9q-.7-.4-1.7-.4q-1,0-1.8,.3q-.8,.4-1.2,1q-.5,.5-.6,1.3l-3.1,0q.1-1.5 .9-2.7q.9-1.2 2.4-1.8q1.4-.7 3.4-.7q1.5,0 2.7,.4q1.2,.4 2,1.1q.8,.7 1.2,1.6q.5,1 .5,2.2l0,11l-3.2,0l0-2.3l0,0q-.4,.7-.9,1.3q-.6,.5-1.5,.9q-1,.4-2.4,.4zM250.1,211.7q1.4,0 2.3-.5q.9-.5 1.4-1.4q.4-.8 .4-1.8l0-1.9q-.1,.2-.5,.3q-.4,.1-.9,.2q-.5,.1-1.2,.2q-.6,.1-1.2,.2q-.9,.1-1.6,.4q-.8,.3-1.3,.8q-.4,.5-.4,1.3q0,.7 .3,1.2q.4,.5 1.1,.7q.7,.3 1.6,.3zM261,214l0-16l3,0l0,2.6l.1,0q.4-1.3 1.4-2q.9-.8 2.5-.8q.3,0 .6,0q.3,.1 .5,.1l0,3q-.2-.1-.6-.1q-.5-.1-1.1-.1q-.9,0-1.6,.4q-.7,.4-1.2,1.3q-.4,.8-.4,2.2l0,9.4zM278.5,220.5q-2,0-3.5-.5q-1.5-.6-2.4-1.7q-.9-1.2-1.1-2.7l3.2,0q.2,.8 .7,1.3q.5,.5 1.3,.8q.8,.2 1.8,.2q1.9,0 3-1q1.1-1.1 1.1-3l0-2.4l0,0q-.6,.9-1.3,1.5q-.8,.6-1.7,.9q-.9,.3-2,.3q-2,0-3.6-1q-1.6-1.1-2.4-2.9q-.9-1.9-.9-4.3q0-2.5 .9-4.3q.9-1.9 2.4-3q1.6-1 3.6-1q1.1,0 2,.3q.9,.3 1.7,.9q.8,.6 1.3,1.6l0,0l0-2.5l3.2,0l0,15.8q0,2.4-1,3.9q-1,1.5-2.7,2.2q-1.6,.6-3.6,.6zM278.3,211.5q1.4,0 2.4-.7q1-.7 1.5-1.9q.6-1.3 .6-3q0-1.6-.6-2.9q-.5-1.2-1.5-1.9q-1-.7-2.4-.7q-1.3,0-2.3,.7q-.9,.6-1.5,1.8q-.5,1.2-.5,3q0,1.8 .5,3.1q.6,1.2 1.5,1.8q1,.7 2.3,.7zM289.4,214l0-16l3.2,0l0,16zM290.9,195.3q-.8,0-1.4-.6q-.6-.6-.6-1.4q0-.8 .6-1.4q.6-.6 1.4-.6q.9,0 1.5,.6q.6,.6 .6,1.4q0,.8-.6,1.4q-.6,.6-1.5,.6zM299.4,204.8l0,9.2l-3.2,0l0-16l3.1,0l0,4l-.8,0q.8-2.2 2.2-3.2q1.4-1.1 3.4-1.1q1.7,0 3,.7q1.3,.7 2,2.1q.8,1.5 .8,3.5l0,10l-3.2,0l0-9.6q0-1.9-.9-2.9q-.9-.9-2.6-.9q-1.1,0-2,.4q-.8,.4-1.3,1.4q-.5,.9-.5,2.4zM320.5,220.5q-2,0-3.5-.5q-1.5-.6-2.4-1.7q-.9-1.2-1.1-2.7l3.2,0q.2,.8 .7,1.3q.6,.5 1.3,.8q.8,.2 1.8,.2q1.9,0 3-1q1.1-1.1 1.1-3l0-2.4l0,0q-.6,.9-1.3,1.5q-.8,.6-1.7,.9q-.9,.3-2,.3q-2,0-3.6-1q-1.6-1.1-2.4-2.9q-.9-1.9-.9-4.3q0-2.5 .9-4.3q.9-1.9 2.4-3q1.6-1 3.6-1q1.1,0 2,.3q.9,.3 1.7,.9q.8,.6 1.3,1.6l0,0l0-2.5l3.2,0l0,15.8q0,2.4-1,3.9q-1,1.5-2.6,2.2q-1.7,.6-3.7,.6zM320.3,211.5q1.4,0 2.4-.7q1-.7 1.5-1.9q.6-1.3 .6-3q0-1.6-.6-2.9q-.5-1.2-1.5-1.9q-1-.7-2.4-.7q-1.3,0-2.3,.7q-.9,.6-1.5,1.8q-.5,1.2-.5,3q0,1.8 .5,3.1q.6,1.2 1.5,1.8q1,.7 2.3,.7zM338.8,220.3l0-22.3l3.1,0l0,2.3l0,0q.5-.9 1.3-1.4q.8-.6 1.7-.9q1-.3 2-.3q2.1,0 3.6,1q1.6,1.1 2.4,3q.9,1.8 .9,4.3q0,2.5-.9,4.3q-.8,1.9-2.4,3q-1.5,1-3.6,1q-1.1,0-2-.3q-.9-.3-1.6-.9q-.8-.6-1.3-1.5l-.1,0l0,8.7zM346.2,211.6q1.3,0 2.3-.7q1-.6 1.5-1.9q.6-1.2 .6-3q0-1.8-.6-3q-.5-1.3-1.5-1.9q-1-.7-2.3-.7q-1.3,0-2.4,.7q-1,.7-1.5,2q-.6,1.2-.6,2.9q0,1.7 .6,2.9q.5,1.3 1.5,2q1.1,.7 2.4,.7zM356.6,214l0-16l3.1,0l0,2.6l0,0q.5-1.3 1.4-2q1-.8 2.5-.8q.4,0 .7,0q.3,.1 .5,.1l0,3q-.2-.1-.7-.1q-.5-.1-1-.1q-.9,0-1.7,.4q-.7,.4-1.2,1.3q-.4,.8-.4,2.2l0,9.4zM367.1,214l0-16l3.2,0l0,16zM368.7,195.3q-.8,0-1.4-.6q-.6-.6-.6-1.4q0-.8 .6-1.4q.6-.6 1.4-.6q.9,0 1.5,.6q.6,.6 .6,1.4q0,.8-.6,1.4q-.6,.6-1.5,.6zM380.8,214.4q-2.3,0-4-1.1q-1.7-1.1-2.7-2.9q-1-1.9-1-4.4q0-2.4 1-4.3q1-1.9 2.7-3q1.7-1 4-1q1.4,0 2.6,.4q1.2,.4 2.2,1.2q.9,.8 1.4,1.8q.6,1.1 .8,2.4l-3.2,0q-.1-.7-.4-1.3q-.3-.5-.8-.9q-.5-.4-1.2-.7q-.6-.2-1.4-.2q-1.4,0-2.4,.7q-1,.7-1.5,2q-.5,1.2-.5,2.9q0,1.7 .5,3q.5,1.2 1.5,1.9q1,.7 2.4,.7q.8,0 1.4-.2q.7-.2 1.1-.6q.5-.4 .8-1q.3-.6 .4-1.3l3.3,0q-.2,1.3-.7,2.3q-.6,1.1-1.5,1.9q-1,.8-2.2,1.2q-1.2,.5-2.6,.5zM397.3,214.4q-2.4,0-4.1-1.1q-1.7-1.1-2.6-3q-.9-1.9-.9-4.3q0-2.4 .9-4.3q1-1.9 2.7-3q1.7-1 3.8-1q1.7,0 3.1,.6q1.4,.6 2.4,1.7q.9,1.1 1.5,2.6q.5,1.5 .5,3.4l0,.9l-13.5,0l0-2.5l11.8,0l-1.4,.8q0-1.5-.5-2.6q-.6-1.1-1.5-1.7q-1-.6-2.3-.6q-1.4,0-2.3,.6q-1,.6-1.5,1.7q-.6,1.1-.6,2.6l0,1.4q0,1.5 .6,2.6q.5,1.2 1.5,1.8q1,.7 2.4,.7q1.1,0 1.9-.3q.8-.4 1.3-.9q.6-.6 .8-1.4l3.1,0q-.3,1.6-1.3,2.8q-1,1.1-2.5,1.8q-1.5,.7-3.3,.7zM413.3,214.4q-1.9,0-3.3-.6q-1.5-.6-2.4-1.8q-.9-1.1-1-2.9l3.1,0q.2,1.3 1.1,2q.8,.7 2.4,.7q1.5,0 2.4-.6q.9-.6 .9-1.6q0-.8-.6-1.3q-.7-.5-1.7-.7l-2.7-.6q-2.2-.5-3.4-1.6q-1.1-1.2-1.1-2.9q0-1.5 .7-2.5q.8-1.1 2.2-1.7q1.3-.6 3.2-.6q1.8,0 3.2,.6q1.4,.6 2.2,1.8q.8,1.2 .8,2.8l-3,0q0-1.2-.9-1.9q-.9-.8-2.3-.8q-1.3,0-2.1,.6q-.8,.7-.8,1.6q0,.8 .6,1.3q.6,.5 1.7,.7l2.7,.7q2.3,.5 3.4,1.5q1.1,1.1 1.1,2.9q0,1.5-.8,2.6q-.9,1.1-2.3,1.7q-1.5,.6-3.3,.6zM429.9,214l0-16l3.2,0l0,16zM431.5,195.3q-.8,0-1.4-.6q-.6-.6-.6-1.4q0-.8 .6-1.4q.6-.6 1.4-.6q.9,0 1.4,.6q.6,.6 .6,1.4q0,.8-.6,1.4q-.5,.6-1.4,.6zM439.9,204.8l0,9.2l-3.2,0l0-16l3.1,0l0,4l-.7,0q.8-2.2 2.2-3.2q1.4-1.1 3.4-1.1q1.6,0 2.9,.7q1.3,.7 2.1,2.1q.8,1.5 .8,3.5l0,10l-3.2,0l0-9.6q0-1.9-.9-2.9q-1-.9-2.6-.9q-1.1,0-2,.4q-.9,.4-1.4,1.4q-.5,.9-.5,2.4zM461.7,214l0-22.6l3.4,0l0,9.6l11.2,0l0-9.6l3.3,0l0,22.6l-3.3,0l0-10.1l-11.2,0l0,10.1zM490.4,214.4q-2.3,0-4-1.1q-1.8-1.1-2.7-2.9q-1-1.9-1-4.4q0-2.4 1-4.3q.9-1.9 2.7-3q1.7-1 4-1q2.3,0 4,1q1.7,1.1 2.7,3q.9,1.9 .9,4.3q0,2.5-.9,4.4q-1,1.8-2.7,2.9q-1.7,1.1-4,1.1zM490.4,211.6q1.3,0 2.3-.7q1-.7 1.6-1.9q.5-1.3 .5-3q0-1.7-.5-2.9q-.6-1.3-1.6-2q-1-.7-2.3-.7q-1.4,0-2.4,.7q-1,.7-1.5,1.9q-.5,1.3-.5,3q0,1.7 .5,3q.5,1.2 1.5,1.9q1,.7 2.4,.7zM500.9,214l0-16l3.1,0l0,3.4l-.3,0q.4-1.2 1.2-2q.7-.9 1.7-1.3q1-.4 2.1-.4q1.9,0 3.2,1.1q1.3,1 1.6,2.6l-.5,0q.4-1.1 1.1-1.9q.8-.8 1.9-1.3q1-.5 2.4-.5q1.5,0 2.7,.6q1.2,.7 1.9,2q.7,1.3 .7,3.2l0,10.5l-3.2,0l0-10.2q0-1.8-.9-2.5q-1-.8-2.3-.8q-1.1,0-1.8,.5q-.8,.4-1.2,1.2q-.4,.8-.4,1.8l0,10l-3.2,0l0-10.5q0-1.3-.9-2.2q-.9-.8-2.2-.8q-1,0-1.8,.4q-.8,.5-1.3,1.3q-.5,.9-.5,2.2l0,9.6zM534.2,214.4q-2.4,0-4.1-1.1q-1.7-1.1-2.6-3q-1-1.9-1-4.3q0-2.4 1-4.3q.9-1.9 2.6-3q1.7-1 3.9-1q1.7,0 3,.6q1.4,.6 2.4,1.7q1,1.1 1.5,2.6q.5,1.5 .5,3.4l0,.9l-13.4,0l0-2.5l11.8,0l-1.4,.8q0-1.5-.6-2.6q-.5-1.1-1.5-1.7q-1-.6-2.3-.6q-1.3,0-2.3,.6q-.9,.6-1.5,1.7q-.5,1.1-.5,2.6l0,1.4q0,1.5 .5,2.6q.5,1.2 1.6,1.8q1,.7 2.4,.7q1,0 1.8-.3q.8-.4 1.4-.9q.5-.6 .7-1.4l3.1,0q-.3,1.6-1.3,2.8q-1,1.1-2.5,1.8q-1.4,.7-3.2,.7zM550,214l8.2-22.6l4.1,0l8.1,22.6l-3.6,0l-4.4-12.7q-.5-1.6-1.1-3.6q-.7-1.9-1.5-4.7l.9,0q-.8,2.8-1.5,4.7q-.6,2-1.1,3.6l-4.5,12.7zM554.6,208.1l0-2.8l11.3,0l0,2.8zM578.4,214.4q-1.9,0-3.3-.6q-1.5-.6-2.4-1.8q-.9-1.1-1-2.9l3.2,0q.1,1.3 1,2q.9,.7 2.4,.7q1.5,0 2.4-.6q.9-.6 .9-1.6q0-.8-.6-1.3q-.7-.5-1.7-.7l-2.6-.6q-2.3-.5-3.5-1.6q-1.1-1.2-1.1-2.9q0-1.5 .7-2.5q.8-1.1 2.2-1.7q1.4-.6 3.2-.6q1.8,0 3.2,.6q1.4,.6 2.2,1.8q.8,1.2 .9,2.8l-3.1,0q0-1.2-.9-1.9q-.8-.8-2.3-.8q-1.3,0-2.1,.6q-.8,.7-.8,1.6q0,.8 .6,1.3q.6,.5 1.7,.7l2.7,.7q2.3,.5 3.4,1.5q1.1,1.1 1.1,2.9q0,1.5-.8,2.6q-.9,1.1-2.3,1.7q-1.5,.6-3.3,.6zM593.6,214.4q-1.9,0-3.3-.6q-1.5-.6-2.4-1.8q-.9-1.1-1-2.9l3.1,0q.2,1.3 1.1,2q.8,.7 2.4,.7q1.5,0 2.4-.6q.9-.6 .9-1.6q0-.8-.6-1.3q-.7-.5-1.7-.7l-2.7-.6q-2.2-.5-3.4-1.6q-1.1-1.2-1.1-2.9q0-1.5 .7-2.5q.8-1.1 2.2-1.7q1.3-.6 3.2-.6q1.8,0 3.2,.6q1.4,.6 2.2,1.8q.8,1.2 .8,2.8l-3,0q0-1.2-.9-1.9q-.9-.8-2.3-.8q-1.4,0-2.2,.6q-.8,.7-.8,1.6q0,.8 .7,1.3q.6,.5 1.6,.7l2.8,.7q2.3,.5 3.4,1.5q1.1,1.1 1.1,2.9q0,1.5-.8,2.6q-.9,1.1-2.3,1.7q-1.5,.6-3.3,.6zM602.8,214l0-16l3.2,0l0,16zM604.4,195.3q-.8,0-1.4-.6q-.6-.6-.6-1.4q0-.8 .6-1.4q.6-.6 1.4-.6q.9,0 1.5,.6q.5,.6 .5,1.4q0,.8-.5,1.4q-.6,.6-1.5,.6zM615.5,214.4q-1.8,0-3.3-.6q-1.4-.6-2.3-1.8q-.9-1.1-1-2.9l3.1,0q.2,1.3 1,2q.9,.7 2.5,.7q1.5,0 2.4-.6q.9-.6 .9-1.6q0-.8-.7-1.3q-.6-.5-1.6-.7l-2.7-.6q-2.2-.5-3.4-1.6q-1.2-1.2-1.2-2.9q0-1.5 .8-2.5q.8-1.1 2.1-1.7q1.4-.6 3.2-.6q1.8,0 3.2,.6q1.4,.6 2.3,1.8q.8,1.2 .8,2.8l-3,0q-.1-1.2-.9-1.9q-.9-.8-2.3-.8q-1.4,0-2.2,.6q-.8,.7-.8,1.6q0,.8 .6,1.3q.6,.5 1.7,.7l2.7,.7q2.4,.5 3.5,1.5q1.1,1.1 1.1,2.9q0,1.5-.9,2.6q-.8,1.1-2.2,1.7q-1.5,.6-3.4,.6zM632.5,198l0,2.6l-9.3,0l0-2.6zM626.1,193.7l3.2,0l0,16.1q0,.9 .3,1.2q.4,.4 1.4,.4q.3,0 .8,0q.4,0 .7,0l0,2.6q-.4,0-.9,0q-.6,0-1.1,0q-2.3,0-3.3-.9q-1.1-1-1.1-2.9zM639.9,214.3q-1.6,0-2.8-.6q-1.3-.5-2-1.6q-.7-1.1-.7-2.7q0-1.3 .5-2.2q.5-.9 1.4-1.4q.9-.5 2-.8q1.2-.2 2.4-.4q1.5-.2 2.4-.3q.8-.1 1.2-.4q.4-.2 .4-.8l0-.1q0-.8-.4-1.4q-.4-.6-1.1-.9q-.7-.4-1.7-.4q-1.1,0-1.8,.3q-.8,.4-1.3,1q-.4,.5-.5,1.3l-3.1,0q0-1.5 .9-2.7q.8-1.2 2.3-1.8q1.5-.7 3.5-.7q1.5,0 2.6,.4q1.2,.4 2.1,1.1q.8,.7 1.2,1.6q.4,1 .4,2.2l0,11l-3.1,0l0-2.3l-.1,0q-.3,.7-.9,1.3q-.5,.5-1.5,.9q-.9,.4-2.3,.4zM640.6,211.7q1.4,0 2.3-.5q.9-.5 1.3-1.4q.5-.8 .5-1.8l0-1.9q-.2,.2-.5,.3q-.4,.1-.9,.2q-.6,.1-1.2,.2q-.6,.1-1.2,.2q-.9,.1-1.7,.4q-.7,.3-1.2,.8q-.5,.5-.5,1.3q0,.7 .4,1.2q.4,.5 1.1,.7q.6,.3 1.6,.3zM654.6,204.8l0,9.2l-3.2,0l0-16l3.2,0l0,4l-.8,0q.8-2.2 2.2-3.2q1.4-1.1 3.4-1.1q1.7,0 3,.7q1.3,.7 2,2.1q.8,1.5 .8,3.5l0,10l-3.2,0l0-9.6q0-1.9-.9-2.9q-.9-.9-2.6-.9q-1.1,0-2,.4q-.8,.4-1.3,1.4q-.6,.9-.6,2.4zM676.5,198l0,2.6l-9.3,0l0-2.6zM670,193.7l3.2,0l0,16.1q0,.9 .4,1.2q.4,.4 1.3,.4q.4,0 .8,0q.5,0 .8,0l0,2.6q-.4,0-.9,0q-.6,0-1.1,0q-2.3,0-3.4-.9q-1.1-1-1.1-2.9z"/><rect x="960" y="70" width="170" height="236" rx="34" fill="#22C55E"/><rect x="960" y="232" width="170" height="16" fill="#179A48"/><rect x="982" y="96" width="126" height="90" rx="16" fill="#12311F"/><ellipse cx="1020" cy="132" rx="9" ry="13" fill="#FFF"/><ellipse cx="1070" cy="132" rx="9" ry="13" fill="#FFF"/><circle cx="1023" cy="136" r="4" fill="#12311F"/><circle cx="1073" cy="136" r="4" fill="#12311F"/><path d="M1024 160 q21 18 42 0" fill="none" stroke="#FFF" stroke-width="6" stroke-linecap="round"/><circle cx="1000" cy="160" r="7" fill="#FF7A7A" opacity=".8"/><circle cx="1090" cy="160" r="7" fill="#FF7A7A" opacity=".8"/><rect x="980" y="300" width="44" height="20" rx="8" fill="#1D2B36"/><rect x="1066" y="300" width="44" height="20" rx="8" fill="#1D2B36"/><path d="M1130 200 C1190 200 1200 140 1185 96" fill="none" stroke="#1D2B36" stroke-width="12" stroke-linecap="round"/><path d="M1168 92 l12 -34 l22 6 l-4 12 l30 12 l-6 16 l-30 -10 l-4 10 z" fill="#1D2B36"/><path d="M1226 90 l18 6" stroke="#1D2B36" stroke-width="8" stroke-linecap="round"/></g></svg>
